<?xml version="1.0" encoding="UTF-8" standalone="no"?>
<!DOCTYPE svg PUBLIC "-//W3C//DTD SVG 1.1//EN"
 "http://www.w3.org/Graphics/SVG/1.1/DTD/svg11.dtd">
<!-- Generated by graphviz version 2.38.0 (20140413.2041)
 -->
<!-- Title: lqt_external_system Pages: 1 -->
<svg width="314pt" height="262pt"
 viewBox="0.00 0.00 314.00 262.24" xmlns="http://www.w3.org/2000/svg" xmlns:xlink="http://www.w3.org/1999/xlink">
<g id="graph0" class="graph" transform="scale(1 1) rotate(0) translate(4 258.238)">
<title>lqt_external_system</title>
<polygon fill="white" stroke="none" points="-4,4 -4,-258.238 310,-258.238 310,4 -4,4"/>
<!-- 0 -->
<g id="node1" class="node"><title>0</title>
<ellipse fill="none" stroke="black" cx="153" cy="-127.119" rx="27" ry="18"/>
<text text-anchor="middle" x="153" y="-123.419" font-family="Times New Roman,serif" font-size="14.00">0</text>
</g>
<!-- 1 -->
<g id="node2" class="node"><title>1</title>
<ellipse fill="none" stroke="black" cx="279" cy="-127.119" rx="27" ry="18"/>
<text text-anchor="middle" x="279" y="-123.419" font-family="Times New Roman,serif" font-size="14.00">1</text>
</g>
<!-- 0&#45;&gt;1 -->
<g id="edge1" class="edge"><title>0&#45;&gt;1</title>
<path fill="none" stroke="black" d="M180.03,-127.119C197.928,-127.119 221.651,-127.119 241.384,-127.119"/>
<polygon fill="black" stroke="black" points="241.58,-130.619 251.58,-127.119 241.58,-123.619 241.58,-130.619"/>
</g>
<!-- 2 -->
<g id="node3" class="node"><title>2</title>
<ellipse fill="none" stroke="black" cx="216" cy="-236.238" rx="27" ry="18"/>
<text text-anchor="middle" x="216" y="-232.538" font-family="Times New Roman,serif" font-size="14.00">2</text>
</g>
<!-- 0&#45;&gt;2 -->
<g id="edge2" class="edge"><title>0&#45;&gt;2</title>
<path fill="none" stroke="black" d="M162.844,-144.169C173.107,-161.946 189.316,-190.021 201.139,-210.499"/>
<polygon fill="black" stroke="black" points="198.194,-212.398 206.225,-219.308 204.256,-208.898 198.194,-212.398"/>
</g>
<!-- 3 -->
<g id="node4" class="node"><title>3</title>
<ellipse fill="none" stroke="black" cx="90" cy="-236.238" rx="27" ry="18"/>
<text text-anchor="middle" x="90" y="-232.538" font-family="Times New Roman,serif" font-size="14.00">3</text>
</g>
<!-- 0&#45;&gt;3 -->
<g id="edge3" class="edge"><title>0&#45;&gt;3</title>
<path fill="none" stroke="black" d="M143.156,-144.169C132.893,-161.946 116.684,-190.021 104.861,-210.499"/>
<polygon fill="black" stroke="black" points="101.744,-208.898 99.7746,-219.308 107.806,-212.398 101.744,-208.898"/>
</g>
<!-- 4 -->
<g id="node5" class="node"><title>4</title>
<ellipse fill="none" stroke="black" cx="27" cy="-127.119" rx="27" ry="18"/>
<text text-anchor="middle" x="27" y="-123.419" font-family="Times New Roman,serif" font-size="14.00">4</text>
</g>
<!-- 0&#45;&gt;4 -->
<g id="edge4" class="edge"><title>0&#45;&gt;4</title>
<path fill="none" stroke="black" d="M125.97,-127.119C108.072,-127.119 84.3491,-127.119 64.6161,-127.119"/>
<polygon fill="black" stroke="black" points="64.4203,-123.619 54.4202,-127.119 64.4202,-130.619 64.4203,-123.619"/>
</g>
<!-- 5 -->
<g id="node6" class="node"><title>5</title>
<ellipse fill="none" stroke="black" cx="90" cy="-18" rx="27" ry="18"/>
<text text-anchor="middle" x="90" y="-14.3" font-family="Times New Roman,serif" font-size="14.00">5</text>
</g>
<!-- 0&#45;&gt;5 -->
<g id="edge5" class="edge"><title>0&#45;&gt;5</title>
<path fill="none" stroke="black" d="M143.156,-110.069C132.893,-92.2921 116.684,-64.2175 104.861,-43.7399"/>
<polygon fill="black" stroke="black" points="107.806,-41.8404 99.7746,-34.9301 101.744,-45.3404 107.806,-41.8404"/>
</g>
<!-- 6 -->
<g id="node7" class="node"><title>6</title>
<ellipse fill="none" stroke="black" cx="216" cy="-18" rx="27" ry="18"/>
<text text-anchor="middle" x="216" y="-14.3" font-family="Times New Roman,serif" font-size="14.00">6</text>
</g>
<!-- 0&#45;&gt;6 -->
<g id="edge6" class="edge"><title>0&#45;&gt;6</title>
<path fill="none" stroke="black" d="M162.844,-110.069C173.107,-92.2921 189.316,-64.2175 201.139,-43.7399"/>
<polygon fill="black" stroke="black" points="204.256,-45.3404 206.225,-34.9301 198.194,-41.8404 204.256,-45.3404"/>
</g>
</g>
</svg>
