<?xml version="1.0" encoding="UTF-8" standalone="no"?>
<!DOCTYPE svg PUBLIC "-//W3C//DTD SVG 1.1//EN"
 "http://www.w3.org/Graphics/SVG/1.1/DTD/svg11.dtd">
<!-- Generated by graphviz version 2.38.0 (20140413.2041)
 -->
<!-- Title: protobuf Pages: 1 -->
<svg width="309pt" height="204pt"
 viewBox="0.00 0.00 308.50 204.00" xmlns="http://www.w3.org/2000/svg" xmlns:xlink="http://www.w3.org/1999/xlink">
<g id="graph0" class="graph" transform="scale(1 1) rotate(0) translate(4 200)">
<title>protobuf</title>
<polygon fill="white" stroke="none" points="-4,4 -4,-200 304.5,-200 304.5,4 -4,4"/>
<!-- file -->
<g id="node1" class="node"><title>file</title>
<ellipse fill="none" stroke="green" cx="151" cy="-18" rx="37.8943" ry="18"/>
<text text-anchor="middle" x="151" y="-14.3" font-family="Times New Roman,serif" font-size="14.00">*.proto</text>
</g>
<!-- proto -->
<g id="node2" class="node"><title>proto</title>
<ellipse fill="none" stroke="blue" cx="151" cy="-105" rx="42.7926" ry="18"/>
<text text-anchor="middle" x="151" y="-101.3" font-family="Times New Roman,serif" font-size="14.00">protobuf</text>
</g>
<!-- file&#45;&gt;proto -->
<g id="edge1" class="edge"><title>file&#45;&gt;proto</title>
<path fill="none" stroke="black" d="M151,-36.201C151,-47.8374 151,-63.4521 151,-76.7632"/>
<polygon fill="black" stroke="black" points="147.5,-76.8245 151,-86.8246 154.5,-76.8246 147.5,-76.8245"/>
<text text-anchor="middle" x="173.5" y="-57.8" font-family="Times New Roman,serif" font-size="14.00">compile</text>
</g>
<!-- java -->
<g id="node3" class="node"><title>java</title>
<polygon fill="none" stroke="black" points="82,-196 0,-196 0,-160 82,-160 82,-196"/>
<text text-anchor="middle" x="41" y="-174.3" font-family="Times New Roman,serif" font-size="14.00">Java Object</text>
</g>
<!-- proto&#45;&gt;java -->
<g id="edge2" class="edge"><title>proto&#45;&gt;java</title>
<path fill="none" stroke="black" stroke-dasharray="5,2" d="M128.474,-120.539C113.38,-130.282 93.2022,-143.306 76.0297,-154.39"/>
<polygon fill="black" stroke="black" points="73.8701,-151.618 67.3663,-159.982 77.6662,-157.499 73.8701,-151.618"/>
</g>
<!-- csharp -->
<g id="node4" class="node"><title>csharp</title>
<polygon fill="none" stroke="black" points="300.5,-196 225.5,-196 225.5,-160 300.5,-160 300.5,-196"/>
<text text-anchor="middle" x="263" y="-174.3" font-family="Times New Roman,serif" font-size="14.00">C# Object</text>
</g>
<!-- proto&#45;&gt;csharp -->
<g id="edge3" class="edge"><title>proto&#45;&gt;csharp</title>
<path fill="none" stroke="black" stroke-dasharray="5,2" d="M173.665,-120.368C189.015,-130.098 209.618,-143.159 227.17,-154.286"/>
<polygon fill="black" stroke="black" points="225.706,-157.502 236.026,-159.901 229.454,-151.59 225.706,-157.502"/>
</g>
<!-- java&#45;&gt;csharp -->
<g id="edge4" class="edge"><title>java&#45;&gt;csharp</title>
<path fill="none" stroke="black" d="M92.4749,-178C129.434,-178 178.895,-178 215.028,-178"/>
<polygon fill="black" stroke="black" points="92.2363,-174.5 82.2362,-178 92.2362,-181.5 92.2363,-174.5"/>
<polygon fill="black" stroke="black" points="215.314,-181.5 225.314,-178 215.314,-174.5 215.314,-181.5"/>
<text text-anchor="middle" x="153.75" y="-163.8" font-family="Times New Roman,serif" font-size="14.00">byte[]</text>
</g>
</g>
</svg>
