<?xml version="1.0" encoding="UTF-8" standalone="no"?>
<!DOCTYPE svg PUBLIC "-//W3C//DTD SVG 1.1//EN"
 "http://www.w3.org/Graphics/SVG/1.1/DTD/svg11.dtd">
<!-- Generated by graphviz version 2.38.0 (20140413.2041)
 -->
<!-- Title: %3 Pages: 1 -->
<svg width="621pt" height="423pt"
 viewBox="0.00 0.00 621.00 423.00" xmlns="http://www.w3.org/2000/svg" xmlns:xlink="http://www.w3.org/1999/xlink">
<g id="graph0" class="graph" transform="scale(1 1) rotate(0) translate(4 419)">
<title>%3</title>
<polygon fill="white" stroke="none" points="-4,4 -4,-419 617,-419 617,4 -4,4"/>
<!-- 0:0 -->
<g id="node1" class="node"><title>0:0</title>
<ellipse fill="none" stroke="black" cx="330" cy="-397" rx="27" ry="18"/>
<text text-anchor="middle" x="330" y="-393.3" font-family="Times New Roman,serif" font-size="14.00">0:0</text>
</g>
<!-- 1:0 -->
<g id="node2" class="node"><title>1:0</title>
<ellipse fill="none" stroke="black" cx="244" cy="-324" rx="27" ry="18"/>
<text text-anchor="middle" x="244" y="-320.3" font-family="Times New Roman,serif" font-size="14.00">1:0</text>
</g>
<!-- 0:0&#45;&gt;1:0 -->
<g id="edge1" class="edge"><title>0:0&#45;&gt;1:0</title>
<path fill="none" stroke="black" d="M313.418,-382.31C300.607,-371.733 282.686,-356.939 268.262,-345.031"/>
<polygon fill="black" stroke="black" points="270.179,-342.074 260.239,-338.407 265.722,-347.472 270.179,-342.074"/>
</g>
<!-- 0:1 -->
<g id="node3" class="node"><title>0:1</title>
<ellipse fill="none" stroke="black" cx="388" cy="-324" rx="27" ry="18"/>
<text text-anchor="middle" x="388" y="-320.3" font-family="Times New Roman,serif" font-size="14.00">0:1</text>
</g>
<!-- 0:0&#45;&gt;0:1 -->
<g id="edge2" class="edge"><title>0:0&#45;&gt;0:1</title>
<path fill="none" stroke="black" d="M342.3,-380.943C350.144,-371.341 360.46,-358.713 369.305,-347.885"/>
<polygon fill="black" stroke="black" points="372.102,-349.994 375.717,-340.036 366.68,-345.566 372.102,-349.994"/>
</g>
<!-- 2:0 -->
<g id="node4" class="node"><title>2:0</title>
<ellipse fill="none" stroke="black" cx="154" cy="-251" rx="27" ry="18"/>
<text text-anchor="middle" x="154" y="-247.3" font-family="Times New Roman,serif" font-size="14.00">2:0</text>
</g>
<!-- 1:0&#45;&gt;2:0 -->
<g id="edge3" class="edge"><title>1:0&#45;&gt;2:0</title>
<path fill="none" stroke="black" d="M227.072,-309.645C213.495,-298.935 194.243,-283.747 178.908,-271.65"/>
<polygon fill="black" stroke="black" points="180.871,-268.74 170.852,-265.295 176.536,-274.236 180.871,-268.74"/>
</g>
<!-- 1:1a -->
<g id="node5" class="node"><title>1:1a</title>
<ellipse fill="none" stroke="black" cx="244" cy="-251" rx="27" ry="18"/>
<text text-anchor="middle" x="244" y="-247.3" font-family="Times New Roman,serif" font-size="14.00">1:1</text>
</g>
<!-- 1:0&#45;&gt;1:1a -->
<g id="edge4" class="edge"><title>1:0&#45;&gt;1:1a</title>
<path fill="none" stroke="black" d="M244,-305.813C244,-297.789 244,-288.047 244,-279.069"/>
<polygon fill="black" stroke="black" points="247.5,-279.029 244,-269.029 240.5,-279.029 247.5,-279.029"/>
</g>
<!-- 1:1b -->
<g id="node6" class="node"><title>1:1b</title>
<ellipse fill="none" stroke="black" cx="388" cy="-251" rx="27" ry="18"/>
<text text-anchor="middle" x="388" y="-247.3" font-family="Times New Roman,serif" font-size="14.00">1:1</text>
</g>
<!-- 0:1&#45;&gt;1:1b -->
<g id="edge5" class="edge"><title>0:1&#45;&gt;1:1b</title>
<path fill="none" stroke="black" d="M388,-305.813C388,-297.789 388,-288.047 388,-279.069"/>
<polygon fill="black" stroke="black" points="391.5,-279.029 388,-269.029 384.5,-279.029 391.5,-279.029"/>
</g>
<!-- 0:2 -->
<g id="node7" class="node"><title>0:2</title>
<ellipse fill="none" stroke="black" cx="514" cy="-251" rx="27" ry="18"/>
<text text-anchor="middle" x="514" y="-247.3" font-family="Times New Roman,serif" font-size="14.00">0:2</text>
</g>
<!-- 0:1&#45;&gt;0:2 -->
<g id="edge6" class="edge"><title>0:1&#45;&gt;0:2</title>
<path fill="none" stroke="black" d="M407.965,-311.75C428.793,-300.013 461.643,-281.503 485.261,-268.194"/>
<polygon fill="black" stroke="black" points="487.134,-271.156 494.128,-263.198 483.698,-265.058 487.134,-271.156"/>
</g>
<!-- 3:0 -->
<g id="node8" class="node"><title>3:0</title>
<ellipse fill="none" stroke="black" cx="82" cy="-178" rx="27" ry="18"/>
<text text-anchor="middle" x="82" y="-174.3" font-family="Times New Roman,serif" font-size="14.00">3:0</text>
</g>
<!-- 2:0&#45;&gt;3:0 -->
<g id="edge7" class="edge"><title>2:0&#45;&gt;3:0</title>
<path fill="none" stroke="black" d="M139.43,-235.632C129.183,-225.527 115.294,-211.831 103.741,-200.439"/>
<polygon fill="black" stroke="black" points="106.126,-197.876 96.5486,-193.347 101.211,-202.86 106.126,-197.876"/>
</g>
<!-- 2:1a -->
<g id="node9" class="node"><title>2:1a</title>
<ellipse fill="none" stroke="black" cx="154" cy="-178" rx="27" ry="18"/>
<text text-anchor="middle" x="154" y="-174.3" font-family="Times New Roman,serif" font-size="14.00">2:1</text>
</g>
<!-- 2:0&#45;&gt;2:1a -->
<g id="edge8" class="edge"><title>2:0&#45;&gt;2:1a</title>
<path fill="none" stroke="black" d="M154,-232.813C154,-224.789 154,-215.047 154,-206.069"/>
<polygon fill="black" stroke="black" points="157.5,-206.029 154,-196.029 150.5,-206.029 157.5,-206.029"/>
</g>
<!-- 2:1b -->
<g id="node10" class="node"><title>2:1b</title>
<ellipse fill="none" stroke="black" cx="226" cy="-178" rx="27" ry="18"/>
<text text-anchor="middle" x="226" y="-174.3" font-family="Times New Roman,serif" font-size="14.00">2:1</text>
</g>
<!-- 1:1a&#45;&gt;2:1b -->
<g id="edge9" class="edge"><title>1:1a&#45;&gt;2:1b</title>
<path fill="none" stroke="black" d="M239.734,-233.174C237.68,-225.07 235.165,-215.151 232.851,-206.025"/>
<polygon fill="black" stroke="black" points="236.21,-205.032 230.36,-196.198 229.425,-206.752 236.21,-205.032"/>
</g>
<!-- 1:2a -->
<g id="node11" class="node"><title>1:2a</title>
<ellipse fill="none" stroke="black" cx="298" cy="-178" rx="27" ry="18"/>
<text text-anchor="middle" x="298" y="-174.3" font-family="Times New Roman,serif" font-size="14.00">1:2</text>
</g>
<!-- 1:1a&#45;&gt;1:2a -->
<g id="edge10" class="edge"><title>1:1a&#45;&gt;1:2a</title>
<path fill="none" stroke="black" d="M255.717,-234.594C262.864,-225.197 272.141,-212.999 280.184,-202.424"/>
<polygon fill="black" stroke="black" points="283.038,-204.454 286.306,-194.376 277.466,-200.217 283.038,-204.454"/>
</g>
<!-- 2:1c -->
<g id="node12" class="node"><title>2:1c</title>
<ellipse fill="none" stroke="black" cx="370" cy="-178" rx="27" ry="18"/>
<text text-anchor="middle" x="370" y="-174.3" font-family="Times New Roman,serif" font-size="14.00">2:1</text>
</g>
<!-- 1:1b&#45;&gt;2:1c -->
<g id="edge11" class="edge"><title>1:1b&#45;&gt;2:1c</title>
<path fill="none" stroke="black" d="M383.734,-233.174C381.68,-225.07 379.165,-215.151 376.851,-206.025"/>
<polygon fill="black" stroke="black" points="380.21,-205.032 374.36,-196.198 373.425,-206.752 380.21,-205.032"/>
</g>
<!-- 1:2b -->
<g id="node13" class="node"><title>1:2b</title>
<ellipse fill="none" stroke="black" cx="442" cy="-178" rx="27" ry="18"/>
<text text-anchor="middle" x="442" y="-174.3" font-family="Times New Roman,serif" font-size="14.00">1:2</text>
</g>
<!-- 1:1b&#45;&gt;1:2b -->
<g id="edge12" class="edge"><title>1:1b&#45;&gt;1:2b</title>
<path fill="none" stroke="black" d="M399.717,-234.594C406.864,-225.197 416.141,-212.999 424.184,-202.424"/>
<polygon fill="black" stroke="black" points="427.038,-204.454 430.306,-194.376 421.466,-200.217 427.038,-204.454"/>
</g>
<!-- 1:2c -->
<g id="node14" class="node"><title>1:2c</title>
<ellipse fill="none" stroke="black" cx="514" cy="-178" rx="27" ry="18"/>
<text text-anchor="middle" x="514" y="-174.3" font-family="Times New Roman,serif" font-size="14.00">1:2</text>
</g>
<!-- 0:2&#45;&gt;1:2c -->
<g id="edge13" class="edge"><title>0:2&#45;&gt;1:2c</title>
<path fill="none" stroke="black" d="M514,-232.813C514,-224.789 514,-215.047 514,-206.069"/>
<polygon fill="black" stroke="black" points="517.5,-206.029 514,-196.029 510.5,-206.029 517.5,-206.029"/>
</g>
<!-- 0:3 -->
<g id="node15" class="node"><title>0:3</title>
<ellipse fill="none" stroke="black" cx="586" cy="-178" rx="27" ry="18"/>
<text text-anchor="middle" x="586" y="-174.3" font-family="Times New Roman,serif" font-size="14.00">0:3</text>
</g>
<!-- 0:2&#45;&gt;0:3 -->
<g id="edge14" class="edge"><title>0:2&#45;&gt;0:3</title>
<path fill="none" stroke="black" d="M528.57,-235.632C538.817,-225.527 552.706,-211.831 564.259,-200.439"/>
<polygon fill="black" stroke="black" points="566.789,-202.86 571.451,-193.347 561.874,-197.876 566.789,-202.86"/>
</g>
<!-- 4:0 -->
<g id="node16" class="node"><title>4:0</title>
<ellipse fill="none" stroke="red" cx="27" cy="-91" rx="27" ry="18"/>
<text text-anchor="middle" x="27" y="-87.3" font-family="Times New Roman,serif" font-size="14.00" fill="red">4:0</text>
</g>
<!-- 3:0&#45;&gt;4:0 -->
<g id="edge15" class="edge"><title>3:0&#45;&gt;4:0</title>
<path fill="none" stroke="red" d="M59.8397,-167.449C49.2575,-161.681 37.508,-153.247 31,-142 27.1018,-135.264 25.438,-127.136 24.9235,-119.411"/>
<polygon fill="red" stroke="red" points="28.4224,-119.261 24.8324,-109.293 21.4227,-119.324 28.4224,-119.261"/>
<text text-anchor="middle" x="49.5" y="-130.8" font-family="Times New Roman,serif" font-size="14.00">invalid</text>
</g>
<!-- 3:25a -->
<g id="node17" class="node"><title>3:25a</title>
<ellipse fill="none" stroke="black" cx="82" cy="-18" rx="27" ry="18"/>
<text text-anchor="middle" x="82" y="-14.3" font-family="Times New Roman,serif" font-size="14.00">3:25</text>
</g>
<!-- 3:0&#45;&gt;3:25a -->
<g id="edge16" class="edge"><title>3:0&#45;&gt;3:25a</title>
<path fill="none" stroke="black" stroke-dasharray="5,2" d="M82,-159.79C82,-132.485 82,-78.994 82,-46.3803"/>
<polygon fill="black" stroke="black" points="85.5001,-46.1883 82,-36.1883 78.5001,-46.1884 85.5001,-46.1883"/>
</g>
<!-- 3:25b -->
<g id="node18" class="node"><title>3:25b</title>
<ellipse fill="none" stroke="black" cx="154" cy="-18" rx="27" ry="18"/>
<text text-anchor="middle" x="154" y="-14.3" font-family="Times New Roman,serif" font-size="14.00">3:25</text>
</g>
<!-- 2:1a&#45;&gt;3:25b -->
<g id="edge17" class="edge"><title>2:1a&#45;&gt;3:25b</title>
<path fill="none" stroke="black" stroke-dasharray="5,2" d="M154,-159.79C154,-132.485 154,-78.994 154,-46.3803"/>
<polygon fill="black" stroke="black" points="157.5,-46.1883 154,-36.1883 150.5,-46.1884 157.5,-46.1883"/>
</g>
<!-- 3:25c -->
<g id="node19" class="node"><title>3:25c</title>
<ellipse fill="none" stroke="black" cx="226" cy="-18" rx="27" ry="18"/>
<text text-anchor="middle" x="226" y="-14.3" font-family="Times New Roman,serif" font-size="14.00">3:25</text>
</g>
<!-- 2:1b&#45;&gt;3:25c -->
<g id="edge18" class="edge"><title>2:1b&#45;&gt;3:25c</title>
<path fill="none" stroke="black" stroke-dasharray="5,2" d="M226,-159.79C226,-132.485 226,-78.994 226,-46.3803"/>
<polygon fill="black" stroke="black" points="229.5,-46.1883 226,-36.1883 222.5,-46.1884 229.5,-46.1883"/>
</g>
<!-- 3:25d -->
<g id="node20" class="node"><title>3:25d</title>
<ellipse fill="none" stroke="black" cx="298" cy="-18" rx="27" ry="18"/>
<text text-anchor="middle" x="298" y="-14.3" font-family="Times New Roman,serif" font-size="14.00">3:25</text>
</g>
<!-- 1:2a&#45;&gt;3:25d -->
<g id="edge19" class="edge"><title>1:2a&#45;&gt;3:25d</title>
<path fill="none" stroke="black" stroke-dasharray="5,2" d="M298,-159.79C298,-132.485 298,-78.994 298,-46.3803"/>
<polygon fill="black" stroke="black" points="301.5,-46.1883 298,-36.1883 294.5,-46.1884 301.5,-46.1883"/>
</g>
<!-- 3:25e -->
<g id="node21" class="node"><title>3:25e</title>
<ellipse fill="none" stroke="black" cx="370" cy="-18" rx="27" ry="18"/>
<text text-anchor="middle" x="370" y="-14.3" font-family="Times New Roman,serif" font-size="14.00">3:25</text>
</g>
<!-- 2:1c&#45;&gt;3:25e -->
<g id="edge20" class="edge"><title>2:1c&#45;&gt;3:25e</title>
<path fill="none" stroke="black" stroke-dasharray="5,2" d="M370,-159.79C370,-132.485 370,-78.994 370,-46.3803"/>
<polygon fill="black" stroke="black" points="373.5,-46.1883 370,-36.1883 366.5,-46.1884 373.5,-46.1883"/>
</g>
<!-- 3:25f -->
<g id="node22" class="node"><title>3:25f</title>
<ellipse fill="none" stroke="black" cx="442" cy="-18" rx="27" ry="18"/>
<text text-anchor="middle" x="442" y="-14.3" font-family="Times New Roman,serif" font-size="14.00">3:25</text>
</g>
<!-- 1:2b&#45;&gt;3:25f -->
<g id="edge21" class="edge"><title>1:2b&#45;&gt;3:25f</title>
<path fill="none" stroke="black" stroke-dasharray="5,2" d="M442,-159.79C442,-132.485 442,-78.994 442,-46.3803"/>
<polygon fill="black" stroke="black" points="445.5,-46.1883 442,-36.1883 438.5,-46.1884 445.5,-46.1883"/>
</g>
<!-- 3:25g -->
<g id="node23" class="node"><title>3:25g</title>
<ellipse fill="none" stroke="black" cx="514" cy="-18" rx="27" ry="18"/>
<text text-anchor="middle" x="514" y="-14.3" font-family="Times New Roman,serif" font-size="14.00">3:25</text>
</g>
<!-- 1:2c&#45;&gt;3:25g -->
<g id="edge22" class="edge"><title>1:2c&#45;&gt;3:25g</title>
<path fill="none" stroke="black" stroke-dasharray="5,2" d="M514,-159.79C514,-132.485 514,-78.994 514,-46.3803"/>
<polygon fill="black" stroke="black" points="517.5,-46.1883 514,-36.1883 510.5,-46.1884 517.5,-46.1883"/>
</g>
<!-- 3:25h -->
<g id="node24" class="node"><title>3:25h</title>
<ellipse fill="none" stroke="black" cx="586" cy="-18" rx="27" ry="18"/>
<text text-anchor="middle" x="586" y="-14.3" font-family="Times New Roman,serif" font-size="14.00">3:25</text>
</g>
<!-- 0:3&#45;&gt;3:25h -->
<g id="edge23" class="edge"><title>0:3&#45;&gt;3:25h</title>
<path fill="none" stroke="black" stroke-dasharray="5,2" d="M586,-159.79C586,-132.485 586,-78.994 586,-46.3803"/>
<polygon fill="black" stroke="black" points="589.5,-46.1883 586,-36.1883 582.5,-46.1884 589.5,-46.1883"/>
</g>
</g>
</svg>
